{"title":"The Jensen Project 2010.DVDRip.XviD.Ac3.Feel-Free","uid":5821333,"size":852542809,"categoryP":"video","categoryS":"movies","magnet":"?xt=urn:btih:377efa00c39afd8a8d98225134612d8dd3d7fcd3&amp;dn=The+Jensen+Project+2010.DVDRip.XviD.Ac3.Feel-Free&amp;tr=udp%3A%2F%2Ftracker.openbittorrent.com%3A80&amp;tr=udp%3A%2F%2Fopen.demonii.com%3A1337&amp;tr=udp%3A%2F%2Ftracker.coppersurfer.tk%3A6969&amp;tr=udp%3A%2F%2Fexodus.desync.com%3A6969","seeders":0,"leechers":1,"uploader":"neon","files":-1,"time":1284068036,"description":"After a 16-year absence, Claire and Matt Thompson are reintroduced to The Jensen Project - a secret community of geniuses conducting advanced underground research to solve the world's most difficult problems.\n &lt;a href=&quot;\nhttp://www.starshare.ro/bitbucket/The.Jensen.Project.2010.DVDRip.XviD.Ac3.Feel-Free.avi_thumbs_%5B2010.09.09_20.35.58%5D.jpg&quot; rel=&quot;nofollow&quot; target=&quot;_NEW&quot;&gt;\nhttp://www.starshare.ro/bitbucket/The.Jensen.Project.2010.DVDRip.XviD.Ac3.Feel-Free.avi_thumbs_%5B2010.09.09_20.35.58%5D.jpg&lt;/a&gt;\n\n\nGenre:Action | Adventure | Family | Fantasy | Sci-Fi\nLanguage: English\n &lt;a href=&quot; http://www.imdb.com/title/tt1678053/&quot; rel=&quot;nofollow&quot; target=&quot;_NEW&quot;&gt; http://www.imdb.com/title/tt1678053/&lt;/a&gt;\nSourceVD\n\nGeneral\nComplete name :The.Jensen.Project.2010.DVDRip.XviD.Ac3.Feel-Free\nFormat : AVI\nFormat/Info : Audio Video Interleave\nFile size : 812 MiB\nDuration : 1h 25mn\nOverall bit rate : 1 323 Kbps\nVideo #0\nCodec ID : XVID\nCodec ID/Hint : XviD\nDuration : 1h 25mn\nBit rate : 993 Kbps\nWidth : 640 pixels\nHeight : 352 pixels\nDisplay aspect ratio : 16:9\nFrame rate : 23.976 fps\nResolution : 24 bits\nColorimetry : 4:2:0\nScan type : Progressive\nBits/(Pixel*Frame) : 0.184\nStream size : 610 MiB (75%)\nWriting library : XviD 1.2.0.dev47 (UTC 2006-11-01)\nAudio #1\nID : 1\nFormat : AC-3\nFormat/Info : Audio Coding 3\nCodec ID : 2000\nDuration : 1h 25mn\nBit rate mode : Constant\nBit rate : 320 Kbps\nChannel(s) : 6 channels\nChannel positions : Front: L C R, Surround: L R, LFE\nSampling rate : 48.0 KHz\nStream size : 197 MiB (24%)\nAlignment : Split accross interleaves\nInterleave, duration : 42 ms (1.00 video frame)\nInterleave, preload duration : 500 ms","torrent":{"xt":"urn:btih:377efa00c39afd8a8d98225134612d8dd3d7fcd3","amp;dn":"The+Jensen+Project+2010.DVDRip.XviD.Ac3.Feel-Free","amp;tr":["udp%3A%2F%2Ftracker.openbittorrent.com%3A80","udp%3A%2F%2Fopen.demonii.com%3A1337","udp%3A%2F%2Ftracker.coppersurfer.tk%3A6969","udp%3A%2F%2Fexodus.desync.com%3A6969"],"infoHash":"377efa00c39afd8a8d98225134612d8dd3d7fcd3","infoHashBuffer":{"type":"Buffer","data":[55,126,250,0,195,154,253,138,141,152,34,81,52,97,45,141,211,215,252,211]},"announce":[],"urlList":[]}}